<svg id="svg" version="1.1" width="400" height="429.6875" viewBox="0 0 400 429.6875" xmlns="http://www.w3.org/2000/svg" xmlns:xlink="http://www.w3.org/1999/xlink" ><g id="svgg"><path id="path0" d="M127.344 73.638 C 99.280 77.500,78.903 98.364,73.860 128.400 C 72.295 137.726,72.266 139.046,72.266 200.766 L 72.266 260.938 94.522 260.938 L 116.778 260.938 116.887 201.465 L 116.997 141.992 118.098 137.891 C 121.796 124.112,129.811 117.569,143.788 116.919 C 162.090 116.066,172.739 124.448,176.887 142.969 L 177.892 147.461 178.024 182.715 L 178.156 217.969 200.391 217.969 L 222.625 217.969 222.754 182.910 C 222.872 151.212,222.951 147.516,223.579 144.353 C 227.432 124.945,238.270 116.047,256.994 116.919 C 269.736 117.512,277.633 123.141,281.587 134.448 C 284.028 141.430,283.984 140.177,283.984 203.468 L 283.984 260.938 306.262 260.938 L 328.541 260.938 328.417 198.340 C 328.283 130.153,328.444 135.384,326.143 124.609 C 318.556 89.079,289.461 68.907,252.673 73.671 C 231.686 76.389,220.201 84.898,206.459 107.910 C 203.283 113.228,200.554 117.578,200.393 117.578 C 200.233 117.578,197.662 113.491,194.681 108.496 C 185.345 92.852,181.674 88.503,172.801 82.580 C 161.216 74.845,143.663 71.392,127.344 73.638 " stroke="none" fill="#fbfbfb" fill-rule="evenodd"></path><path id="path1" d="M173.047 0.223 C 172.510 0.299,167.852 0.551,162.695 0.785 C 154.130 1.173,150.534 1.450,137.109 2.756 C 130.310 3.418,115.719 5.402,109.570 6.501 C 106.563 7.038,103.072 7.648,101.814 7.856 C 92.082 9.463,74.177 14.541,65.291 18.213 C 35.715 30.435,9.590 66.922,2.954 105.273 C 2.620 107.207,2.094 110.195,1.785 111.914 C 0.070 121.476,-0.054 126.508,0.115 179.715 C 0.279 231.593,0.493 240.400,1.976 256.250 C 2.408 260.869,2.939 266.670,3.157 269.141 C 3.375 271.611,3.984 276.621,4.510 280.273 C 5.036 283.926,5.565 287.705,5.686 288.672 C 6.354 294.027,9.554 309.705,11.586 317.578 C 25.189 370.284,51.634 402.303,93.164 416.351 C 102.974 419.670,127.094 425.125,138.281 426.555 C 139.893 426.761,143.672 427.276,146.680 427.700 C 167.143 430.581,204.055 430.489,223.242 427.508 C 226.680 426.974,230.195 426.433,231.055 426.306 C 243.482 424.461,270.766 416.206,276.478 412.562 C 276.960 412.254,276.289 387.629,275.562 379.004 C 275.283 375.689,275.491 375.769,270.740 377.142 C 242.045 385.433,202.872 387.868,170.313 383.384 C 133.434 378.306,114.926 358.790,114.851 324.902 C 114.843 321.428,114.565 321.582,118.945 322.624 C 125.436 324.168,146.575 327.881,153.516 328.697 C 154.697 328.836,158.125 329.290,161.133 329.706 C 167.689 330.614,184.939 332.218,194.849 332.842 C 204.627 333.458,236.682 333.095,245.117 332.273 C 248.555 331.938,254.443 331.395,258.203 331.066 C 261.963 330.737,267.061 330.209,269.531 329.893 C 272.002 329.576,276.660 329.045,279.883 328.712 C 321.471 324.421,359.326 306.620,380.401 281.445 C 391.295 268.432,393.681 260.295,397.638 222.656 C 398.391 215.496,398.620 212.599,399.605 197.746 C 400.281 187.541,400.120 119.431,399.407 114.047 C 394.458 76.699,375.345 43.343,348.438 25.100 C 336.327 16.889,314.652 10.001,287.891 5.860 C 282.375 5.007,271.945 3.566,269.727 3.350 C 268.438 3.225,262.900 2.688,257.422 2.157 C 251.943 1.626,243.945 0.987,239.648 0.737 C 232.639 0.329,175.445 -0.112,173.047 0.223 M143.945 72.660 C 167.843 74.851,180.326 83.418,194.638 107.451 C 197.695 112.584,200.283 116.781,200.391 116.779 C 200.498 116.777,202.954 112.781,205.848 107.899 C 218.706 86.213,229.616 77.433,248.138 73.868 C 293.508 65.135,326.321 93.130,328.904 142.773 C 329.364 151.616,329.427 260.518,328.973 261.234 C 328.727 261.621,323.915 261.704,306.225 261.624 L 283.789 261.523 283.559 202.344 C 283.392 159.434,283.203 142.548,282.871 140.924 C 279.558 124.722,270.871 117.433,254.883 117.443 C 237.647 117.453,227.218 126.478,224.258 143.945 C 224.040 145.234,223.740 146.816,223.593 147.461 C 223.445 148.105,223.218 164.365,223.088 183.594 L 222.852 218.555 200.391 218.555 L 177.930 218.555 177.720 183.789 C 177.469 142.156,177.282 140.423,171.983 130.859 C 161.874 112.613,130.287 112.479,121.311 130.645 C 117.173 139.020,117.447 134.247,117.204 202.148 L 116.992 261.523 94.442 261.624 L 71.891 261.725 71.670 260.841 C 71.067 258.439,71.728 138.105,72.367 133.984 C 78.833 92.284,105.818 69.165,143.945 72.660 " stroke="none" fill="#2c93dc" fill-rule="evenodd"></path><path id="path2" d="M181.055 89.063 C 182.113 90.137,183.066 91.016,183.174 91.016 C 183.281 91.016,182.503 90.137,181.445 89.063 C 180.387 87.988,179.434 87.109,179.326 87.109 C 179.219 87.109,179.997 87.988,181.055 89.063 M219.127 89.355 L 216.992 91.602 219.238 89.466 C 220.474 88.292,221.484 87.281,221.484 87.220 C 221.484 86.930,221.111 87.269,219.127 89.355 M145.020 117.077 C 145.610 117.166,146.577 117.166,147.168 117.077 C 147.759 116.987,147.275 116.914,146.094 116.914 C 144.912 116.914,144.429 116.987,145.020 117.077 M253.816 117.080 C 254.518 117.167,255.572 117.165,256.159 117.076 C 256.746 116.987,256.172 116.916,254.883 116.918 C 253.594 116.920,253.113 116.993,253.816 117.080 M283.784 203.906 C 283.784 235.166,283.830 247.954,283.887 232.324 C 283.943 216.694,283.943 191.118,283.887 175.488 C 283.830 159.858,283.784 172.646,283.784 203.906 M116.895 149.023 C 116.900 149.883,116.980 150.188,117.073 149.702 C 117.167 149.217,117.163 148.513,117.065 148.140 C 116.967 147.767,116.891 148.164,116.895 149.023 M222.843 185.352 C 222.843 203.184,222.891 210.536,222.949 201.689 C 223.008 192.843,223.008 178.253,222.949 169.267 C 222.891 160.282,222.843 167.520,222.843 185.352 M177.921 186.133 C 177.921 203.750,177.969 210.900,178.027 202.022 C 178.086 193.143,178.086 178.729,178.027 169.990 C 177.969 161.252,177.921 168.516,177.921 186.133 " stroke="none" fill="#6da9df" fill-rule="evenodd"></path><path id="path3" d="M116.987 205.664 C 116.987 236.172,117.033 248.595,117.090 233.270 C 117.146 217.946,117.146 192.985,117.090 177.801 C 117.033 162.618,116.987 175.156,116.987 205.664 " stroke="none" fill="#519edc" fill-rule="evenodd"></path><path id="path4" d="M37.292 37.598 L 34.961 40.039 37.402 37.708 C 38.745 36.425,39.844 35.327,39.844 35.266 C 39.844 34.978,39.458 35.330,37.292 37.598 M273.828 123.169 C 273.828 123.236,274.399 123.808,275.098 124.439 L 276.367 125.586 275.220 124.316 C 274.150 123.133,273.828 122.867,273.828 123.169 M189.355 218.652 C 195.425 218.713,205.356 218.713,211.426 218.652 C 217.495 218.592,212.529 218.542,200.391 218.542 C 188.252 218.542,183.286 218.592,189.355 218.652 M0.481 233.984 C 0.481 234.736,0.562 235.044,0.660 234.668 C 0.758 234.292,0.758 233.677,0.660 233.301 C 0.562 232.925,0.481 233.232,0.481 233.984 M94.531 261.328 L 72.070 261.533 94.411 261.626 C 108.984 261.686,116.835 261.583,116.992 261.328 C 117.125 261.113,117.179 260.979,117.113 261.030 C 117.047 261.081,106.885 261.215,94.531 261.328 M283.929 261.429 C 284.092 261.592,294.235 261.680,306.468 261.624 L 328.711 261.523 306.172 261.328 C 293.775 261.221,283.766 261.266,283.929 261.429 M209.863 333.495 C 212.603 333.562,217.085 333.562,219.824 333.495 C 222.563 333.428,220.322 333.373,214.844 333.373 C 209.365 333.373,207.124 333.428,209.863 333.495 M185.059 385.041 C 185.542 385.134,186.333 385.134,186.816 385.041 C 187.300 384.948,186.904 384.872,185.938 384.872 C 184.971 384.872,184.575 384.948,185.059 385.041 M225.488 385.035 C 225.864 385.133,226.479 385.133,226.855 385.035 C 227.231 384.937,226.924 384.856,226.172 384.856 C 225.420 384.856,225.112 384.937,225.488 385.035 M276.270 395.508 C 276.275 396.367,276.355 396.673,276.448 396.187 C 276.542 395.701,276.538 394.998,276.440 394.624 C 276.342 394.251,276.266 394.648,276.270 395.508 " stroke="none" fill="#449cdc" fill-rule="evenodd"></path><path id="path5" d="M136.047 72.944 C 137.074 73.025,138.656 73.024,139.563 72.942 C 140.469 72.860,139.629 72.794,137.695 72.795 C 135.762 72.796,135.020 72.863,136.047 72.944 M261.438 72.944 C 262.465 73.025,264.047 73.024,264.953 72.942 C 265.860 72.860,265.020 72.794,263.086 72.795 C 261.152 72.796,260.411 72.863,261.438 72.944 M72.068 201.953 L 72.070 261.133 94.434 261.138 L 116.797 261.142 94.533 261.037 L 72.268 260.931 72.167 201.852 L 72.067 142.773 72.068 201.953 M283.684 146.094 C 283.684 146.846,283.765 147.153,283.863 146.777 C 283.961 146.401,283.961 145.786,283.863 145.410 C 283.765 145.034,283.684 145.342,283.684 146.094 M328.612 203.805 L 328.516 260.931 306.152 261.035 L 283.789 261.139 306.165 261.234 C 323.776 261.308,328.580 261.224,328.726 260.840 C 328.828 260.571,328.866 234.775,328.810 203.516 L 328.708 146.680 328.612 203.805 M222.747 151.563 C 222.747 152.314,222.827 152.622,222.926 152.246 C 223.024 151.870,223.024 151.255,222.926 150.879 C 222.827 150.503,222.747 150.811,222.747 151.563 M189.160 218.261 C 195.337 218.322,205.444 218.322,211.621 218.261 C 217.798 218.201,212.744 218.152,200.391 218.152 C 188.037 218.152,182.983 218.201,189.160 218.261 " stroke="none" fill="#94c4ec" fill-rule="evenodd"></path><path id="path6" d="M91.968 90.723 L 90.820 91.992 92.090 90.845 C 93.273 89.775,93.539 89.453,93.237 89.453 C 93.170 89.453,92.599 90.024,91.968 90.723 M307.422 89.575 C 307.422 89.643,307.993 90.214,308.691 90.845 L 309.961 91.992 308.814 90.723 C 307.744 89.539,307.422 89.274,307.422 89.575 M328.641 144.531 C 328.641 145.928,328.712 146.499,328.798 145.801 C 328.885 145.103,328.885 143.960,328.798 143.262 C 328.712 142.563,328.641 143.135,328.641 144.531 M177.825 153.125 C 177.825 153.877,177.905 154.185,178.004 153.809 C 178.102 153.433,178.102 152.817,178.004 152.441 C 177.905 152.065,177.825 152.373,177.825 153.125 " stroke="none" fill="#9cbce8" fill-rule="evenodd"></path><path id="path7" d="M135.853 72.554 C 136.988 72.633,138.746 72.632,139.759 72.552 C 140.772 72.472,139.844 72.407,137.695 72.408 C 135.547 72.409,134.718 72.475,135.853 72.554 M261.244 72.554 C 262.379 72.633,264.137 72.632,265.150 72.552 C 266.163 72.472,265.234 72.407,263.086 72.408 C 260.938 72.409,260.108 72.475,261.244 72.554 M91.784 90.527 L 89.648 92.773 91.895 90.638 C 93.981 88.655,94.320 88.281,94.030 88.281 C 93.969 88.281,92.958 89.292,91.784 90.527 M308.398 90.234 C 309.457 91.309,310.410 92.188,310.518 92.188 C 310.625 92.188,309.847 91.309,308.789 90.234 C 307.731 89.160,306.777 88.281,306.670 88.281 C 306.563 88.281,307.340 89.160,308.398 90.234 M167.578 125.195 C 168.307 125.947,168.991 126.563,169.099 126.563 C 169.206 126.563,168.698 125.947,167.969 125.195 C 167.240 124.443,166.556 123.828,166.448 123.828 C 166.341 123.828,166.849 124.443,167.578 125.195 M232.791 125.293 L 231.445 126.758 232.910 125.412 C 234.274 124.159,234.555 123.828,234.256 123.828 C 234.191 123.828,233.532 124.487,232.791 125.293 M71.675 202.344 C 71.675 234.678,71.721 247.905,71.777 231.738 C 71.834 215.571,71.834 189.116,71.777 172.949 C 71.721 156.782,71.675 170.010,71.675 202.344 M329.096 204.102 C 329.096 235.469,329.143 248.359,329.199 232.745 C 329.256 217.132,329.256 191.468,329.199 175.714 C 329.143 159.960,329.096 172.734,329.096 204.102 " stroke="none" fill="#3c94dc" fill-rule="evenodd"></path></g></svg>